<svg xmlns="http://www.w3.org/2000/svg" xmlns:xlink="http://www.w3.org/1999/xlink" width="100" height="100" viewBox="0 0 100 100"><defs><filter id="a" x="0" y="0" width="100" height="100" filterUnits="userSpaceOnUse"><feOffset dy="3" input="SourceAlpha"/><feGaussianBlur stdDeviation="3" result="b"/><feFlood flood-color="#8a8a8a" flood-opacity="0.078"/><feComposite operator="in" in2="b"/><feComposite in="SourceGraphic"/></filter></defs><g transform="translate(-981 -823)"><g transform="matrix(1, 0, 0, 1, 981, 823)" filter="url(#a)"><circle cx="41" cy="41" r="41" transform="translate(9 6)" fill="#fff"/></g><g transform="translate(1000.01 840)"><path d="M5477.99,299.393a14.109,14.109,0,1,0,14,14.108,14.108,14.108,0,0,0-14-14.108Zm0,1.343a12.575,12.575,0,0,1,7.94,2.829,13.653,13.653,0,0,1,.81,1.99l2.08,1.349a13.632,13.632,0,0,1,.85,1.64l-2.63-1.71a14.394,14.394,0,0,1,.22,1.747l3.05,1.98a12.449,12.449,0,0,1,.221,1.235l-3.221-2.093a12.935,12.935,0,0,1-.11,1.524l3.46,2.249v.024c0,.348-.02.69-.05,1.031l-3.56-2.316q-.15.7-.36,1.365l3.72,2.423c-.06.317-.14.627-.23.936l-3.81-2.479q-.254.631-.57,1.234l3.94,2.559a9.026,9.026,0,0,1-.38.842l-4.009-2.609c-.24.383-.49.753-.76,1.109l4.12,2.676c-.16.259-.33.51-.51.756l-4.18-2.718c-.3.343-.62.671-.95.982l4.28,2.783c-.21.23-.42.454-.65.668l-4.34-2.821a13.5,13.5,0,0,1-1.16.841l4.44,2.888c-.26.2-.52.392-.8.57l-4.5-2.93a14.356,14.356,0,0,1-1.44.665l4.63,3.008c-.33.161-.66.309-1,.441l-4.72-3.066a12.8,12.8,0,0,1-1.84.4l4.9,3.18a12.553,12.553,0,0,1-1.311.236l-5.049-3.277c-.17.006-.34.026-.52.026a13.241,13.241,0,0,1-2.21-.2l5.42,3.52a12.378,12.378,0,0,1-2.18-.328l-6.36-4.133c-.17-.078-.34-.167-.52-.25a12.773,12.773,0,0,1,9.848-20.776Zm24.95-18.139-6.28-6.325-4.94,4.981,1.15,1.16-2.67,1.344,5.31,5.349,1.33-2.687,1.16,1.159Zm-6.28-4.425,4.39,4.425-3.05,3.081-4.4-4.425Zm-1.51,8.665-2.7-2.713,1.41-.709,1.99,2Zm-7.16.463h4v4.031h-1.33v-1.737l-8.63,8.692-16.98-14.259L5465.9,283l16.05,13.474,7.77-7.825h-1.73V287.3Zm0,6.718h4v4.031h-1.33v-1.737l-3.33,3.359-.95-.95,3.34-3.359h-1.73v-1.344Zm-30-17.467a4.7,4.7,0,0,0-2,8.933v3.16h1.33v.671h1.33v-.671h1.34v-3.16a4.7,4.7,0,0,0-2-8.933Zm.66,9.4V287.3h-1.33v-1.344Zm.53-1.576,1.04-2.083-1.2-.6-1.03,2.086-1.04-2.086-1.19.6,1.03,2.083a3.335,3.335,0,1,1,2.39,0Z" transform="translate(-5446 -270.5)" fill="#76b900" fill-rule="evenodd"/><path d="M5445.99,270.5H5510V335h-64.01Z" transform="translate(-5446 -270.5)" fill="none" fill-rule="evenodd"/></g></g></svg>