<svg xmlns="http://www.w3.org/2000/svg" xmlns:xlink="http://www.w3.org/1999/xlink" width="100" height="100" viewBox="0 0 100 100"><defs><filter id="a" x="0" y="0" width="100" height="100" filterUnits="userSpaceOnUse"><feOffset dy="3" input="SourceAlpha"/><feGaussianBlur stdDeviation="3" result="b"/><feFlood flood-color="#8a8a8a" flood-opacity="0.078"/><feComposite operator="in" in2="b"/><feComposite in="SourceGraphic"/></filter></defs><g transform="translate(-616 -823)"><g transform="matrix(1, 0, 0, 1, 616, 823)" filter="url(#a)"><circle cx="41" cy="41" r="41" transform="translate(9 6)" fill="#fff"/></g><g transform="translate(634 838)"><path d="M5481.89,100H5452v44h44V100Zm11.44,14.822v14.357l1.34.357v13.13h-13.13l-.36-1.333h-14.36l-.36,1.333h-13.13V129.535l1.34-.357V114.821l-1.34-.357V101.333h13.13l.36,1.334h14.36l.36-1.334h13.13v13.132Zm-34.66-8.155h2.66v2.666h-2.66Zm6.66,2.666h-2.66v-2.666h2.66Zm1.34-2.666h2.66v2.666h-2.66Zm6.66,2.666h-2.66v-2.666h2.66Zm4,0h-2.66v-2.666h2.66Zm4,0h-2.66v-2.666h2.66Zm1.34-2.666h2.66v2.666h-2.66Zm4,0h2.66v2.666h-2.66Zm-28,4h2.66v2.666h-2.66Zm6.66,2.666h-2.66v-2.666h2.66Zm1.34-2.666h2.66v2.666h-2.66Zm6.66,2.666h-2.66v-2.666h2.66Zm4,0h-2.66v-2.666h2.66Zm4,0h-2.66v-2.666h2.66Zm1.34-2.666h2.66v2.666h-2.66Zm4,0h2.66v2.666h-2.66Zm-28,4h2.66v2.666h-2.66Zm28,0h2.66v2.666h-2.66Zm-28,4h2.66v2.666h-2.66Zm28,0h2.66v2.666h-2.66Zm-28,4h2.66v2.666h-2.66Zm28,0h2.66v2.666h-2.66Zm-28,4h2.66v2.666h-2.66v-2.666Zm28,0h2.66v2.666h-2.66v-2.666Zm-28,4h2.66v2.666h-2.66Zm4,0h2.66v2.666h-2.66Zm4,0h2.66v2.666h-2.66Zm4,0h2.66v2.666h-2.66Zm4,0h2.66v2.666h-2.66Zm4,0h2.66v2.666h-2.66Zm4,0h2.66v2.666h-2.66Zm4,0h2.66v2.666h-2.66Zm-28,4h2.66v2.666h-2.66Zm4,0h2.66v2.666h-2.66Zm4,0h2.66v2.666h-2.66Zm4,0h2.66v2.666h-2.66Zm4,0h2.66v2.666h-2.66Zm4,0h2.66v2.666h-2.66Zm4,0h2.66v2.666h-2.66Zm4,0h2.66v2.666h-2.66Zm-18.22-9.072a3.492,3.492,0,0,1-4.9.064c-.9-.9-.88-1.906-.88-3.659s-.02-2.763.88-3.658a3.262,3.262,0,0,1,2.39-.972,3.2,3.2,0,0,1,3.311,2.827h-1.391a1.863,1.863,0,0,0-1.92-1.586,1.818,1.818,0,0,0-1.34.562c-.45.487-.55,1-.55,2.827s.1,2.354.55,2.84a1.807,1.807,0,0,0,1.34.55,1.95,1.95,0,0,0,1.49-.639,2.071,2.071,0,0,0,.46-1.433v-.512h-1.95V121.63h3.33v1.393a3.418,3.418,0,0,1-.82,2.577Zm6.05-8.148h-3.46v9.107h1.38v-3.581h2.08a2.767,2.767,0,1,0,0-5.526Zm-.08,4.272h-2v-3.032h2a1.519,1.519,0,1,1,0,3.032Zm9.53-4.272h1.38v6.037a3.267,3.267,0,0,1-6.53,0v-6.037h1.38v5.974a1.887,1.887,0,1,0,3.771,0Z" transform="translate(-5442 -90)" fill="#76b900" fill-rule="evenodd"/><rect width="64" height="64" fill="none"/></g></g></svg>